<?xml version="1.0" encoding="utf-8"?>
<!-- Generator: Adobe Illustrator 18.1.1, SVG Export Plug-In . SVG Version: 6.00 Build 0)  -->
<svg version="1.1" id="Layer_1" xmlns="http://www.w3.org/2000/svg" xmlns:xlink="http://www.w3.org/1999/xlink" x="0px" y="0px"
	 viewBox="0 0 841.9 595.3" enable-background="new 0 0 841.9 595.3" xml:space="preserve">
<g>
	<g>
		<path fill="#010101" d="M375.7,272.8c6,0,12,1.3,18,4v8.7c-6-3-11.8-4.5-17.6-4.5c-3.6,0-6.8,0.7-9.6,2.1c-2.8,1.4-5,3.5-6.5,6.2
			c-1.5,2.7-2.3,5.7-2.3,9c0,5,1.7,9.1,5,12.1s7.7,4.6,13.2,4.6c1.5,0,2.9-0.1,4.3-0.4c1.4-0.3,3-0.8,4.9-1.5V305H377v-7.4h17.6
			v20.2c-2.4,1.7-5.3,3-8.7,4c-3.4,0.9-6.9,1.4-10.6,1.4c-5.2,0-9.9-1.1-14.1-3.2c-4.2-2.1-7.5-5.1-9.8-9c-2.4-3.8-3.5-8.1-3.5-12.9
			c0-4.8,1.2-9.2,3.6-13c2.4-3.9,5.7-6.9,9.9-9.1C365.7,273.9,370.4,272.8,375.7,272.8z"/>
		<path fill="#010101" d="M436.5,273.5v7.4h-22.3v12.9h21.3v7.4h-21.3v14H437v7.4h-32.2v-49.1H436.5z"/>
		<path fill="#010101" d="M454.4,273.5l16.1,19.4l16.1-19.4h8.5v49.1h-9.5v-34.5h-0.3l-14.2,17.3h-1.3l-14.2-17.3h-0.3v34.5h-9.5
			v-49.1H454.4z"/>
	</g>
	<polygon fill="#7F1416" points="475.4,299.8 465.7,299.9 470.5,292.9 	"/>
</g>
</svg>
